<svg width="25" height="25" viewBox="0 0 25 25" fill="none" xmlns="http://www.w3.org/2000/svg">
<path d="M2.44689 10.9629C2.34535 10.584 2.34534 10.1851 2.44684 9.8063C2.54835 9.42745 2.7478 9.08199 3.02515 8.80467L8.80444 3.02532C9.08176 2.74797 9.42722 2.54851 9.80606 2.447C10.1849 2.34549 10.5838 2.34551 10.9626 2.44704L16.3706 3.89612C16.4269 3.15524 16.6848 2.44387 17.1165 1.83907L10.603 0.0939429C10.1355 -0.031317 9.64321 -0.0313144 9.1757 0.0939512C8.70818 0.219217 8.28187 0.465334 7.93961 0.807565L0.807554 7.9397C0.465326 8.28197 0.219214 8.70827 0.0939502 9.1758C-0.031314 9.64331 -0.0313167 10.1356 0.093942 10.6031L1.90618 17.3665C2.49861 16.9141 3.20394 16.6331 3.94517 16.5543L2.44689 10.9629Z" fill="white"/>
<path d="M21.0047 8.25881L22.5531 14.0371C22.6547 14.416 22.6545 14.8148 22.5531 15.1936C22.4515 15.5725 22.252 15.918 21.9747 16.1953L16.1954 21.9748C15.9181 22.2521 15.5726 22.4515 15.1937 22.553C14.815 22.6545 14.416 22.6545 14.0372 22.553L8.44587 21.0547C8.36709 21.796 8.08613 22.5014 7.63366 23.0938L14.397 24.906C14.8645 25.0313 15.3567 25.0313 15.8242 24.906C16.2918 24.7807 16.7181 24.5347 17.0604 24.1924L24.1924 17.0603C24.5347 16.718 24.7807 16.2917 24.906 15.8241C25.0313 15.3566 25.0313 14.8643 24.906 14.3969L23.0254 7.38027C22.4455 7.85359 21.7463 8.15761 21.0047 8.25881Z" fill="white"/>
<path d="M2.06879 18.2993C1.61074 18.7572 1.29881 19.3409 1.17244 19.9762C1.04606 20.6115 1.11092 21.2701 1.35881 21.8686C1.60669 22.4669 2.02648 22.9785 2.56506 23.3384C3.10366 23.6982 3.73687 23.8904 4.38464 23.8904C5.0324 23.8904 5.66562 23.6982 6.2042 23.3384C6.7428 22.9785 7.16259 22.4669 7.41047 21.8686C7.65836 21.2701 7.72321 20.6115 7.59683 19.9762C7.47046 19.3409 7.15853 18.7572 6.70049 18.2993C6.08581 17.686 5.25295 17.3415 4.38464 17.3415C3.51633 17.3415 2.68347 17.686 2.06879 18.2993Z" fill="white"/>
<path d="M18.1297 1.89996C17.6717 2.358 17.3597 2.94157 17.2334 3.5769C17.107 4.21222 17.1718 4.87075 17.4197 5.46922C17.6676 6.06767 18.0874 6.57919 18.6259 6.93907C19.1646 7.29896 19.7978 7.49105 20.4455 7.49105C21.0933 7.49105 21.7265 7.29896 22.2652 6.93907C22.8037 6.57919 23.2234 6.06767 23.4713 5.46922C23.7192 4.87075 23.7841 4.21222 23.6577 3.5769C23.5314 2.94157 23.2194 2.358 22.7614 1.89996C22.1468 1.28666 21.3138 0.942222 20.4455 0.942222C19.5773 0.942222 18.7443 1.28666 18.1297 1.89996Z" fill="white"/>
<path d="M14.4223 21.1817C14.2908 21.1817 14.1599 21.1645 14.0329 21.1304L8.9147 19.7589C8.74404 18.8476 8.3019 18.009 7.64629 17.3535C6.99067 16.6979 6.15219 16.2556 5.24085 16.085L3.8695 10.9672C3.80152 10.712 3.80171 10.4433 3.87008 10.1881C3.93846 9.93297 4.07261 9.70022 4.25913 9.51313L9.51236 4.25971C9.69922 4.07283 9.93198 3.93845 10.1873 3.87004C10.4425 3.80165 10.7113 3.80166 10.9666 3.87008L15.9412 5.20307C16.1386 6.10878 16.6048 6.93377 17.279 7.56999C17.9531 8.2062 18.8037 8.62398 19.7192 8.76859L21.1297 14.0335C21.1976 14.2889 21.1975 14.5576 21.129 14.8127C21.0606 15.0679 20.9265 15.3006 20.7399 15.4878L15.4867 20.7411C15.3472 20.8812 15.1813 20.9924 14.9986 21.0679C14.8159 21.1436 14.6201 21.1822 14.4223 21.1817Z" fill="white"/>
</svg>
