<svg width="21" height="20" viewBox="0 0 21 20" fill="none" xmlns="http://www.w3.org/2000/svg">
<path d="M11 12C10.8022 12 10.6089 12.0586 10.4444 12.1685C10.28 12.2784 10.1518 12.4346 10.0761 12.6173C10.0004 12.8 9.98062 13.0011 10.0192 13.1951C10.0578 13.3891 10.153 13.5673 10.2929 13.7071C10.4327 13.847 10.6109 13.9422 10.8049 13.9808C10.9989 14.0194 11.1999 13.9996 11.3827 13.9239C11.5654 13.8482 11.7216 13.72 11.8315 13.5556C11.9413 13.3911 12 13.1978 12 13C12 12.7348 11.8946 12.4804 11.7071 12.2929C11.5196 12.1054 11.2652 12 11 12ZM11 0C9.68677 0 8.38641 0.258658 7.17315 0.761205C5.9599 1.26375 4.85751 2.00035 3.92892 2.92893C2.05356 4.8043 0.999988 7.34784 0.999988 10C0.991246 12.3091 1.79078 14.5485 3.25999 16.33L1.25999 18.33C1.12123 18.4706 1.02723 18.6492 0.98986 18.8432C0.952486 19.0372 0.973409 19.2379 1.04999 19.42C1.13305 19.5999 1.26769 19.7511 1.43683 19.8544C1.60598 19.9577 1.80199 20.0083 1.99999 20H11C13.6522 20 16.1957 18.9464 18.0711 17.0711C19.9464 15.1957 21 12.6522 21 10C21 7.34784 19.9464 4.8043 18.0711 2.92893C16.1957 1.05357 13.6522 0 11 0ZM11 18H4.40999L5.33999 17.07C5.43448 16.9774 5.50965 16.8669 5.56114 16.7451C5.61264 16.6232 5.63944 16.4923 5.63999 16.36C5.63623 16.0962 5.5284 15.8446 5.33999 15.66C4.03057 14.352 3.21516 12.6305 3.03268 10.7888C2.8502 8.94705 3.31193 7.09901 4.33922 5.55952C5.3665 4.02004 6.89578 2.88436 8.6665 2.34597C10.4372 1.80759 12.3398 1.8998 14.0502 2.60691C15.7606 3.31402 17.1728 4.59227 18.0464 6.22389C18.92 7.85551 19.2009 9.73954 18.8411 11.555C18.4814 13.3705 17.5033 15.005 16.0735 16.1802C14.6438 17.3554 12.8508 17.9985 11 18ZM11 6C10.7348 6 10.4804 6.10536 10.2929 6.29289C10.1053 6.48043 9.99999 6.73478 9.99999 7V10C9.99999 10.2652 10.1053 10.5196 10.2929 10.7071C10.4804 10.8946 10.7348 11 11 11C11.2652 11 11.5196 10.8946 11.7071 10.7071C11.8946 10.5196 12 10.2652 12 10V7C12 6.73478 11.8946 6.48043 11.7071 6.29289C11.5196 6.10536 11.2652 6 11 6Z" fill="white"/>
</svg>
